<svg viewBox="0 0 279 109" fill="none" xmlns="http://www.w3.org/2000/svg">
<path d="M93.5 54.5H53.5" stroke="#00C6CF" stroke-width="2" stroke-miterlimit="10"/>
<path d="M92.7889 54.5H278.97" stroke="#00C6CF" stroke-width="8" stroke-miterlimit="10"/>
<line x1="94" y1="71.5" x2="279" y2="71.5" stroke="#989898" stroke-dasharray="2 2"/>
<line x1="53" y1="36.5" x2="279" y2="36.5" stroke="#989898" stroke-dasharray="2 2"/>
<line x1="54" y1="71.5" x2="91" y2="71.5" stroke="#989898" stroke-dasharray="2 2"/>
<line x1="94.5" y1="72" x2="94.5" y2="63" stroke="#989898" stroke-dasharray="2 2"/>
<line x1="91.5" y1="72" x2="91.5" y2="63" stroke="#989898" stroke-dasharray="2 2"/>
<line x1="53.5" y1="72" x2="53.5" y2="63" stroke="#989898" stroke-dasharray="2 2"/>
<line x1="53.5" y1="46" x2="53.5" y2="37" stroke="#989898" stroke-dasharray="2 2"/>
<line x1="185.5" y1="82" x2="185.5" y2="73" stroke="#989898" stroke-dasharray="2 2"/>
<line x1="165.5" y1="37" x2="165.5" y2="28" stroke="#989898" stroke-dasharray="2 2"/>
<line x1="72.5" y1="82" x2="72.5" y2="73" stroke="#989898" stroke-dasharray="2 2"/>
<line x1="278.5" y1="72" x2="278.5" y2="63" stroke="#989898" stroke-dasharray="2 2"/>
<line x1="278.5" y1="46" x2="278.5" y2="37" stroke="#989898" stroke-dasharray="2 2"/>
<path d="M44.9832 91.98H44.9532C44.8665 92.3067 44.6532 92.58 44.3132 92.8C43.9799 93.0133 43.5465 93.12 43.0132 93.12C42.5865 93.12 42.1932 93.0433 41.8332 92.89C41.4799 92.73 41.1765 92.5 40.9232 92.2C40.6699 91.8933 40.4699 91.5167 40.3232 91.07C40.1832 90.6167 40.1132 90.0967 40.1132 89.51C40.1132 88.93 40.1832 88.4167 40.3232 87.97C40.4632 87.5167 40.6632 87.14 40.9232 86.84C41.1832 86.5333 41.4965 86.3 41.8632 86.14C42.2299 85.98 42.6365 85.9 43.0832 85.9C43.7099 85.9 44.2332 86.04 44.6532 86.32C45.0732 86.6 45.3965 86.97 45.6232 87.43L44.9332 87.85C44.7732 87.4767 44.5332 87.1833 44.2132 86.97C43.8999 86.7567 43.5232 86.65 43.0832 86.65C42.7765 86.65 42.4965 86.7067 42.2432 86.82C41.9899 86.9267 41.7699 87.08 41.5832 87.28C41.4032 87.48 41.2632 87.72 41.1632 88C41.0632 88.28 41.0132 88.5933 41.0132 88.94V90.07C41.0132 90.4167 41.0632 90.7333 41.1632 91.02C41.2632 91.3 41.4032 91.54 41.5832 91.74C41.7699 91.94 41.9965 92.0967 42.2632 92.21C42.5299 92.3167 42.8299 92.37 43.1632 92.37C43.4032 92.37 43.6299 92.34 43.8432 92.28C44.0632 92.2133 44.2532 92.1167 44.4132 91.99C44.5799 91.8633 44.7099 91.7067 44.8032 91.52C44.8965 91.3267 44.9432 91.1 44.9432 90.84V90.15H43.4032V89.41H45.7632V93H44.9832V91.98ZM47.4163 86.02H49.7563C50.1897 86.02 50.583 86.0933 50.9363 86.24C51.2897 86.3867 51.5897 86.6067 51.8363 86.9C52.0897 87.1867 52.283 87.55 52.4163 87.99C52.5497 88.4233 52.6163 88.93 52.6163 89.51C52.6163 90.09 52.5497 90.6 52.4163 91.04C52.283 91.4733 52.0897 91.8367 51.8363 92.13C51.5897 92.4167 51.2897 92.6333 50.9363 92.78C50.583 92.9267 50.1897 93 49.7563 93H47.4163V86.02ZM49.7563 92.26C50.043 92.26 50.3063 92.2133 50.5463 92.12C50.7863 92.02 50.993 91.8767 51.1663 91.69C51.3397 91.5033 51.473 91.2767 51.5663 91.01C51.6663 90.7367 51.7163 90.4267 51.7163 90.08V88.94C51.7163 88.5933 51.6663 88.2867 51.5663 88.02C51.473 87.7467 51.3397 87.5167 51.1663 87.33C50.993 87.1433 50.7863 87.0033 50.5463 86.91C50.3063 86.81 50.043 86.76 49.7563 86.76H48.2563V92.26H49.7563ZM54.1253 93V86.02H56.9053C57.532 86.02 58.012 86.2 58.3453 86.56C58.6853 86.9133 58.8553 87.4 58.8553 88.02C58.8553 88.64 58.6853 89.13 58.3453 89.49C58.012 89.8433 57.532 90.02 56.9053 90.02H54.9653V93H54.1253ZM54.9653 89.28H56.9053C57.2386 89.28 57.4953 89.1933 57.6753 89.02C57.862 88.8467 57.9553 88.6 57.9553 88.28V87.76C57.9553 87.44 57.862 87.1933 57.6753 87.02C57.4953 86.8467 57.2386 86.76 56.9053 86.76H54.9653V89.28ZM62.473 87.84H63.273V88.68H63.313C63.4464 88.3533 63.6397 88.1133 63.893 87.96C64.153 87.8 64.463 87.72 64.823 87.72C65.143 87.72 65.433 87.7833 65.693 87.91C65.953 88.0367 66.173 88.2167 66.353 88.45C66.5397 88.6833 66.6797 88.9667 66.773 89.3C66.873 89.6333 66.923 90.0067 66.923 90.42C66.923 90.8333 66.873 91.2067 66.773 91.54C66.6797 91.8733 66.5397 92.1567 66.353 92.39C66.173 92.6233 65.953 92.8033 65.693 92.93C65.433 93.0567 65.143 93.12 64.823 93.12C64.123 93.12 63.6197 92.8 63.313 92.16H63.273V95H62.473V87.84ZM64.603 92.4C65.0564 92.4 65.413 92.26 65.673 91.98C65.933 91.6933 66.063 91.32 66.063 90.86V89.98C66.063 89.52 65.933 89.15 65.673 88.87C65.413 88.5833 65.0564 88.44 64.603 88.44C64.423 88.44 64.2497 88.4667 64.083 88.52C63.923 88.5667 63.783 88.6333 63.663 88.72C63.543 88.8067 63.4464 88.9133 63.373 89.04C63.3064 89.16 63.273 89.29 63.273 89.43V91.35C63.273 91.5167 63.3064 91.6667 63.373 91.8C63.4464 91.9267 63.543 92.0367 63.663 92.13C63.783 92.2167 63.923 92.2833 64.083 92.33C64.2497 92.3767 64.423 92.4 64.603 92.4ZM70.2138 93.12C69.8605 93.12 69.5405 93.0567 69.2538 92.93C68.9738 92.8033 68.7305 92.6233 68.5238 92.39C68.3238 92.15 68.1672 91.8667 68.0538 91.54C67.9472 91.2067 67.8938 90.8333 67.8938 90.42C67.8938 90.0133 67.9472 89.6433 68.0538 89.31C68.1672 88.9767 68.3238 88.6933 68.5238 88.46C68.7305 88.22 68.9738 88.0367 69.2538 87.91C69.5405 87.7833 69.8605 87.72 70.2138 87.72C70.5605 87.72 70.8705 87.7833 71.1438 87.91C71.4172 88.0367 71.6505 88.2133 71.8438 88.44C72.0372 88.66 72.1838 88.9233 72.2838 89.23C72.3905 89.5367 72.4438 89.8733 72.4438 90.24V90.62H68.7338V90.86C68.7338 91.08 68.7672 91.2867 68.8338 91.48C68.9072 91.6667 69.0072 91.83 69.1338 91.97C69.2672 92.11 69.4272 92.22 69.6138 92.3C69.8072 92.38 70.0238 92.42 70.2638 92.42C70.5905 92.42 70.8738 92.3433 71.1138 92.19C71.3605 92.0367 71.5505 91.8167 71.6838 91.53L72.2538 91.94C72.0872 92.2933 71.8272 92.58 71.4738 92.8C71.1205 93.0133 70.7005 93.12 70.2138 93.12ZM70.2138 88.39C69.9938 88.39 69.7938 88.43 69.6138 88.51C69.4338 88.5833 69.2772 88.69 69.1438 88.83C69.0172 88.97 68.9172 89.1367 68.8438 89.33C68.7705 89.5167 68.7338 89.7233 68.7338 89.95V90.02H71.5838V89.91C71.5838 89.45 71.4572 89.0833 71.2038 88.81C70.9572 88.53 70.6272 88.39 70.2138 88.39ZM73.7621 93V87.84H74.5621V88.79H74.6121C74.7054 88.5433 74.8721 88.3233 75.1121 88.13C75.3521 87.9367 75.6821 87.84 76.1021 87.84H76.4121V88.64H75.9421C75.5088 88.64 75.1688 88.7233 74.9221 88.89C74.6821 89.05 74.5621 89.2533 74.5621 89.5V93H73.7621ZM81.7173 93.12C81.3573 93.12 81.0339 93.0567 80.7473 92.93C80.4606 92.8033 80.2173 92.6233 80.0173 92.39C79.8239 92.1567 79.6739 91.8733 79.5673 91.54C79.4673 91.2067 79.4173 90.8333 79.4173 90.42C79.4173 90.0067 79.4673 89.6333 79.5673 89.3C79.6739 88.9667 79.8239 88.6833 80.0173 88.45C80.2173 88.2167 80.4606 88.0367 80.7473 87.91C81.0339 87.7833 81.3573 87.72 81.7173 87.72C82.2306 87.72 82.6406 87.8333 82.9473 88.06C83.2606 88.28 83.4939 88.57 83.6473 88.93L82.9773 89.27C82.8839 89.0033 82.7306 88.7967 82.5173 88.65C82.3039 88.5033 82.0373 88.43 81.7173 88.43C81.4773 88.43 81.2673 88.47 81.0873 88.55C80.9073 88.6233 80.7573 88.73 80.6373 88.87C80.5173 89.0033 80.4273 89.1667 80.3673 89.36C80.3073 89.5467 80.2773 89.7533 80.2773 89.98V90.86C80.2773 91.3133 80.3973 91.6867 80.6373 91.98C80.8839 92.2667 81.2439 92.41 81.7173 92.41C82.3639 92.41 82.8306 92.11 83.1173 91.51L83.6973 91.9C83.5306 92.2733 83.2806 92.57 82.9473 92.79C82.6206 93.01 82.2106 93.12 81.7173 93.12ZM88.5766 93C88.2766 93 88.0599 92.92 87.9266 92.76C87.7999 92.6 87.7199 92.4 87.6866 92.16H87.6366C87.5232 92.48 87.3366 92.72 87.0766 92.88C86.8166 93.04 86.5066 93.12 86.1466 93.12C85.5999 93.12 85.1732 92.98 84.8666 92.7C84.5666 92.42 84.4166 92.04 84.4166 91.56C84.4166 91.0733 84.5932 90.7 84.9466 90.44C85.3066 90.18 85.8632 90.05 86.6166 90.05H87.6366V89.54C87.6366 89.1733 87.5366 88.8933 87.3366 88.7C87.1366 88.5067 86.8299 88.41 86.4166 88.41C86.1032 88.41 85.8399 88.48 85.6266 88.62C85.4199 88.76 85.2466 88.9467 85.1066 89.18L84.6266 88.73C84.7666 88.45 84.9899 88.2133 85.2966 88.02C85.6032 87.82 85.9899 87.72 86.4566 87.72C87.0832 87.72 87.5699 87.8733 87.9166 88.18C88.2632 88.4867 88.4366 88.9133 88.4366 89.46V92.3H89.0266V93H88.5766ZM86.2766 92.44C86.4766 92.44 86.6599 92.4167 86.8266 92.37C86.9932 92.3233 87.1366 92.2567 87.2566 92.17C87.3766 92.0833 87.4699 91.9833 87.5366 91.87C87.6032 91.7567 87.6366 91.6333 87.6366 91.5V90.65H86.5766C86.1166 90.65 85.7799 90.7167 85.5666 90.85C85.3599 90.9833 85.2566 91.1767 85.2566 91.43V91.64C85.2566 91.8933 85.3466 92.09 85.5266 92.23C85.7132 92.37 85.9632 92.44 86.2766 92.44ZM90.1684 87.84H90.9684V88.68H91.0084C91.1417 88.3533 91.335 88.1133 91.5884 87.96C91.8484 87.8 92.1584 87.72 92.5184 87.72C92.8384 87.72 93.1284 87.7833 93.3884 87.91C93.6484 88.0367 93.8684 88.2167 94.0484 88.45C94.235 88.6833 94.375 88.9667 94.4684 89.3C94.5684 89.6333 94.6184 90.0067 94.6184 90.42C94.6184 90.8333 94.5684 91.2067 94.4684 91.54C94.375 91.8733 94.235 92.1567 94.0484 92.39C93.8684 92.6233 93.6484 92.8033 93.3884 92.93C93.1284 93.0567 92.8384 93.12 92.5184 93.12C91.8184 93.12 91.315 92.8 91.0084 92.16H90.9684V95H90.1684V87.84ZM92.2984 92.4C92.7517 92.4 93.1084 92.26 93.3684 91.98C93.6284 91.6933 93.7584 91.32 93.7584 90.86V89.98C93.7584 89.52 93.6284 89.15 93.3684 88.87C93.1084 88.5833 92.7517 88.44 92.2984 88.44C92.1184 88.44 91.945 88.4667 91.7784 88.52C91.6184 88.5667 91.4784 88.6333 91.3584 88.72C91.2384 88.8067 91.1417 88.9133 91.0684 89.04C91.0017 89.16 90.9684 89.29 90.9684 89.43V91.35C90.9684 91.5167 91.0017 91.6667 91.0684 91.8C91.1417 91.9267 91.2384 92.0367 91.3584 92.13C91.4784 92.2167 91.6184 92.2833 91.7784 92.33C91.945 92.3767 92.1184 92.4 92.2984 92.4ZM96.3691 86.63C96.1958 86.63 96.0691 86.59 95.9891 86.51C95.9158 86.4233 95.8791 86.3133 95.8791 86.18V86.05C95.8791 85.9167 95.9158 85.81 95.9891 85.73C96.0691 85.6433 96.1958 85.6 96.3691 85.6C96.5425 85.6 96.6658 85.6433 96.7391 85.73C96.8191 85.81 96.8591 85.9167 96.8591 86.05V86.18C96.8591 86.3133 96.8191 86.4233 96.7391 86.51C96.6658 86.59 96.5425 86.63 96.3691 86.63ZM95.9691 87.84H96.7691V93H95.9691V87.84ZM99.6091 93C99.3291 93 99.1158 92.9233 98.9691 92.77C98.8291 92.61 98.7591 92.4033 98.7591 92.15V88.54H97.9091V87.84H98.3891C98.5625 87.84 98.6791 87.8067 98.7391 87.74C98.8058 87.6667 98.8391 87.5433 98.8391 87.37V86.41H99.5591V87.84H100.689V88.54H99.5591V92.3H100.609V93H99.6091ZM105.725 93C105.425 93 105.208 92.92 105.075 92.76C104.948 92.6 104.868 92.4 104.835 92.16H104.785C104.672 92.48 104.485 92.72 104.225 92.88C103.965 93.04 103.655 93.12 103.295 93.12C102.748 93.12 102.322 92.98 102.015 92.7C101.715 92.42 101.565 92.04 101.565 91.56C101.565 91.0733 101.742 90.7 102.095 90.44C102.455 90.18 103.012 90.05 103.765 90.05H104.785V89.54C104.785 89.1733 104.685 88.8933 104.485 88.7C104.285 88.5067 103.978 88.41 103.565 88.41C103.252 88.41 102.988 88.48 102.775 88.62C102.568 88.76 102.395 88.9467 102.255 89.18L101.775 88.73C101.915 88.45 102.138 88.2133 102.445 88.02C102.752 87.82 103.138 87.72 103.605 87.72C104.232 87.72 104.718 87.8733 105.065 88.18C105.412 88.4867 105.585 88.9133 105.585 89.46V92.3H106.175V93H105.725ZM103.425 92.44C103.625 92.44 103.808 92.4167 103.975 92.37C104.142 92.3233 104.285 92.2567 104.405 92.17C104.525 92.0833 104.618 91.9833 104.685 91.87C104.752 91.7567 104.785 91.6333 104.785 91.5V90.65H103.725C103.265 90.65 102.928 90.7167 102.715 90.85C102.508 90.9833 102.405 91.1767 102.405 91.43V91.64C102.405 91.8933 102.495 92.09 102.675 92.23C102.862 92.37 103.112 92.44 103.425 92.44ZM61.8878 106V105.26H63.8378V99.64H63.7678L62.0078 101.28L61.5178 100.75L63.3678 99.02H64.6778V105.26H66.4778V106H61.8878ZM72.3339 101.58C72.3339 102.1 72.2572 102.59 72.1039 103.05C71.9506 103.503 71.7506 103.92 71.5039 104.3C71.2639 104.673 70.9972 105.007 70.7039 105.3C70.4106 105.587 70.1239 105.82 69.8439 106H68.7639C69.1372 105.727 69.4706 105.46 69.7639 105.2C70.0572 104.94 70.3139 104.67 70.5339 104.39C70.7539 104.103 70.9406 103.8 71.0939 103.48C71.2472 103.153 71.3706 102.787 71.4639 102.38L71.4139 102.36C71.2472 102.647 71.0306 102.887 70.7639 103.08C70.5039 103.267 70.1606 103.36 69.7339 103.36C69.4339 103.36 69.1572 103.31 68.9039 103.21C68.6506 103.11 68.4339 102.967 68.2539 102.78C68.0739 102.593 67.9306 102.37 67.8239 102.11C67.7239 101.843 67.6739 101.543 67.6739 101.21C67.6739 100.87 67.7272 100.56 67.8339 100.28C67.9472 99.9933 68.1039 99.75 68.3039 99.55C68.5106 99.3433 68.7539 99.1833 69.0339 99.07C69.3206 98.9567 69.6406 98.9 69.9939 98.9C70.3539 98.9 70.6772 98.9633 70.9639 99.09C71.2572 99.21 71.5039 99.3867 71.7039 99.62C71.9106 99.8467 72.0672 100.127 72.1739 100.46C72.2806 100.793 72.3339 101.167 72.3339 101.58ZM70.0039 102.65C70.4639 102.65 70.8206 102.523 71.0739 102.27C71.3339 102.017 71.4639 101.653 71.4639 101.18V101.1C71.4639 100.627 71.3339 100.263 71.0739 100.01C70.8206 99.7567 70.4639 99.63 70.0039 99.63C69.5439 99.63 69.1839 99.7567 68.9239 100.01C68.6706 100.263 68.5439 100.627 68.5439 101.1V101.18C68.5439 101.653 68.6706 102.017 68.9239 102.27C69.1839 102.523 69.5439 102.65 70.0039 102.65ZM76 106.12C75.1667 106.12 74.5567 105.803 74.17 105.17C73.79 104.537 73.6 103.65 73.6 102.51C73.6 101.37 73.79 100.483 74.17 99.85C74.5567 99.2167 75.1667 98.9 76 98.9C76.8333 98.9 77.44 99.2167 77.82 99.85C78.2067 100.483 78.4 101.37 78.4 102.51C78.4 103.65 78.2067 104.537 77.82 105.17C77.44 105.803 76.8333 106.12 76 106.12ZM76 105.39C76.2733 105.39 76.5067 105.333 76.7 105.22C76.8933 105.107 77.05 104.947 77.17 104.74C77.29 104.533 77.3767 104.29 77.43 104.01C77.49 103.73 77.52 103.42 77.52 103.08V101.94C77.52 101.6 77.49 101.29 77.43 101.01C77.3767 100.73 77.29 100.487 77.17 100.28C77.05 100.073 76.8933 99.9133 76.7 99.8C76.5067 99.6867 76.2733 99.63 76 99.63C75.7267 99.63 75.4933 99.6867 75.3 99.8C75.1067 99.9133 74.95 100.073 74.83 100.28C74.71 100.487 74.62 100.73 74.56 101.01C74.5067 101.29 74.48 101.6 74.48 101.94V103.08C74.48 103.42 74.5067 103.73 74.56 104.01C74.62 104.29 74.71 104.533 74.83 104.74C74.95 104.947 75.1067 105.107 75.3 105.22C75.4933 105.333 75.7267 105.39 76 105.39ZM84.3261 101.58C84.3261 102.1 84.2494 102.59 84.0961 103.05C83.9428 103.503 83.7428 103.92 83.4961 104.3C83.2561 104.673 82.9894 105.007 82.6961 105.3C82.4028 105.587 82.1161 105.82 81.8361 106H80.7561C81.1294 105.727 81.4628 105.46 81.7561 105.2C82.0494 104.94 82.3061 104.67 82.5261 104.39C82.7461 104.103 82.9328 103.8 83.0861 103.48C83.2394 103.153 83.3628 102.787 83.4561 102.38L83.4061 102.36C83.2394 102.647 83.0228 102.887 82.7561 103.08C82.4961 103.267 82.1528 103.36 81.7261 103.36C81.4261 103.36 81.1494 103.31 80.8961 103.21C80.6428 103.11 80.4261 102.967 80.2461 102.78C80.0661 102.593 79.9228 102.37 79.8161 102.11C79.7161 101.843 79.6661 101.543 79.6661 101.21C79.6661 100.87 79.7194 100.56 79.8261 100.28C79.9394 99.9933 80.0961 99.75 80.2961 99.55C80.5028 99.3433 80.7461 99.1833 81.0261 99.07C81.3128 98.9567 81.6328 98.9 81.9861 98.9C82.3461 98.9 82.6694 98.9633 82.9561 99.09C83.2494 99.21 83.4961 99.3867 83.6961 99.62C83.9028 99.8467 84.0594 100.127 84.1661 100.46C84.2728 100.793 84.3261 101.167 84.3261 101.58ZM81.9961 102.65C82.4561 102.65 82.8128 102.523 83.0661 102.27C83.3261 102.017 83.4561 101.653 83.4561 101.18V101.1C83.4561 100.627 83.3261 100.263 83.0661 100.01C82.8128 99.7567 82.4561 99.63 81.9961 99.63C81.5361 99.63 81.1761 99.7567 80.9161 100.01C80.6628 100.263 80.5361 100.627 80.5361 101.1V101.18C80.5361 101.653 80.6628 102.017 80.9161 102.27C81.1761 102.523 81.5361 102.65 81.9961 102.65Z" fill="#989898"/>
<path d="M136.483 8.98H136.453C136.367 9.30667 136.153 9.58 135.813 9.8C135.48 10.0133 135.047 10.12 134.513 10.12C134.087 10.12 133.693 10.0433 133.333 9.89C132.98 9.73 132.677 9.5 132.423 9.2C132.17 8.89333 131.97 8.51667 131.823 8.07C131.683 7.61667 131.613 7.09667 131.613 6.51C131.613 5.93 131.683 5.41667 131.823 4.97C131.963 4.51667 132.163 4.14 132.423 3.84C132.683 3.53333 132.997 3.3 133.363 3.14C133.73 2.98 134.137 2.9 134.583 2.9C135.21 2.9 135.733 3.04 136.153 3.32C136.573 3.6 136.897 3.97 137.123 4.43L136.433 4.85C136.273 4.47667 136.033 4.18333 135.713 3.97C135.4 3.75667 135.023 3.65 134.583 3.65C134.277 3.65 133.997 3.70667 133.743 3.82C133.49 3.92667 133.27 4.08 133.083 4.28C132.903 4.48 132.763 4.72 132.663 5C132.563 5.28 132.513 5.59333 132.513 5.94V7.07C132.513 7.41667 132.563 7.73333 132.663 8.02C132.763 8.3 132.903 8.54 133.083 8.74C133.27 8.94 133.497 9.09667 133.763 9.21C134.03 9.31667 134.33 9.37 134.663 9.37C134.903 9.37 135.13 9.34 135.343 9.28C135.563 9.21333 135.753 9.11667 135.913 8.99C136.08 8.86333 136.21 8.70667 136.303 8.52C136.397 8.32667 136.443 8.1 136.443 7.84V7.15H134.903V6.41H137.263V10H136.483V8.98ZM138.916 3.02H141.256C141.69 3.02 142.083 3.09333 142.436 3.24C142.79 3.38667 143.09 3.60667 143.336 3.9C143.59 4.18667 143.783 4.55 143.916 4.99C144.05 5.42333 144.116 5.93 144.116 6.51C144.116 7.09 144.05 7.6 143.916 8.04C143.783 8.47333 143.59 8.83667 143.336 9.13C143.09 9.41667 142.79 9.63333 142.436 9.78C142.083 9.92667 141.69 10 141.256 10H138.916V3.02ZM141.256 9.26C141.543 9.26 141.806 9.21333 142.046 9.12C142.286 9.02 142.493 8.87667 142.666 8.69C142.84 8.50333 142.973 8.27667 143.066 8.01C143.166 7.73667 143.216 7.42667 143.216 7.08V5.94C143.216 5.59333 143.166 5.28667 143.066 5.02C142.973 4.74667 142.84 4.51667 142.666 4.33C142.493 4.14333 142.286 4.00333 142.046 3.91C141.806 3.81 141.543 3.76 141.256 3.76H139.756V9.26H141.256ZM145.625 10V3.02H148.405C149.032 3.02 149.512 3.2 149.845 3.56C150.185 3.91333 150.355 4.4 150.355 5.02C150.355 5.64 150.185 6.13 149.845 6.49C149.512 6.84333 149.032 7.02 148.405 7.02H146.465V10H145.625ZM146.465 6.28H148.405C148.739 6.28 148.995 6.19333 149.175 6.02C149.362 5.84667 149.455 5.6 149.455 5.28V4.76C149.455 4.44 149.362 4.19333 149.175 4.02C148.995 3.84667 148.739 3.76 148.405 3.76H146.465V6.28ZM153.973 4.84H154.773V5.68H154.813C154.946 5.35333 155.14 5.11333 155.393 4.96C155.653 4.8 155.963 4.72 156.323 4.72C156.643 4.72 156.933 4.78333 157.193 4.91C157.453 5.03667 157.673 5.21667 157.853 5.45C158.04 5.68333 158.18 5.96667 158.273 6.3C158.373 6.63333 158.423 7.00667 158.423 7.42C158.423 7.83333 158.373 8.20667 158.273 8.54C158.18 8.87333 158.04 9.15667 157.853 9.39C157.673 9.62333 157.453 9.80333 157.193 9.93C156.933 10.0567 156.643 10.12 156.323 10.12C155.623 10.12 155.12 9.8 154.813 9.16H154.773V12H153.973V4.84ZM156.103 9.4C156.556 9.4 156.913 9.26 157.173 8.98C157.433 8.69333 157.563 8.32 157.563 7.86V6.98C157.563 6.52 157.433 6.15 157.173 5.87C156.913 5.58333 156.556 5.44 156.103 5.44C155.923 5.44 155.75 5.46667 155.583 5.52C155.423 5.56667 155.283 5.63333 155.163 5.72C155.043 5.80667 154.946 5.91333 154.873 6.04C154.806 6.16 154.773 6.29 154.773 6.43V8.35C154.773 8.51667 154.806 8.66667 154.873 8.8C154.946 8.92667 155.043 9.03667 155.163 9.13C155.283 9.21667 155.423 9.28333 155.583 9.33C155.75 9.37667 155.923 9.4 156.103 9.4ZM161.714 10.12C161.36 10.12 161.04 10.0567 160.754 9.93C160.474 9.80333 160.23 9.62333 160.024 9.39C159.824 9.15 159.667 8.86667 159.554 8.54C159.447 8.20667 159.394 7.83333 159.394 7.42C159.394 7.01333 159.447 6.64333 159.554 6.31C159.667 5.97667 159.824 5.69333 160.024 5.46C160.23 5.22 160.474 5.03667 160.754 4.91C161.04 4.78333 161.36 4.72 161.714 4.72C162.06 4.72 162.37 4.78333 162.644 4.91C162.917 5.03667 163.15 5.21333 163.344 5.44C163.537 5.66 163.684 5.92333 163.784 6.23C163.89 6.53667 163.944 6.87333 163.944 7.24V7.62H160.234V7.86C160.234 8.08 160.267 8.28667 160.334 8.48C160.407 8.66667 160.507 8.83 160.634 8.97C160.767 9.11 160.927 9.22 161.114 9.3C161.307 9.38 161.524 9.42 161.764 9.42C162.09 9.42 162.374 9.34333 162.614 9.19C162.86 9.03667 163.05 8.81667 163.184 8.53L163.754 8.94C163.587 9.29333 163.327 9.58 162.974 9.8C162.62 10.0133 162.2 10.12 161.714 10.12ZM161.714 5.39C161.494 5.39 161.294 5.43 161.114 5.51C160.934 5.58333 160.777 5.69 160.644 5.83C160.517 5.97 160.417 6.13667 160.344 6.33C160.27 6.51667 160.234 6.72333 160.234 6.95V7.02H163.084V6.91C163.084 6.45 162.957 6.08333 162.704 5.81C162.457 5.53 162.127 5.39 161.714 5.39ZM165.262 10V4.84H166.062V5.79H166.112C166.205 5.54333 166.372 5.32333 166.612 5.13C166.852 4.93667 167.182 4.84 167.602 4.84H167.912V5.64H167.442C167.009 5.64 166.669 5.72333 166.422 5.89C166.182 6.05 166.062 6.25333 166.062 6.5V10H165.262ZM173.217 10.12C172.857 10.12 172.534 10.0567 172.247 9.93C171.961 9.80333 171.717 9.62333 171.517 9.39C171.324 9.15667 171.174 8.87333 171.067 8.54C170.967 8.20667 170.917 7.83333 170.917 7.42C170.917 7.00667 170.967 6.63333 171.067 6.3C171.174 5.96667 171.324 5.68333 171.517 5.45C171.717 5.21667 171.961 5.03667 172.247 4.91C172.534 4.78333 172.857 4.72 173.217 4.72C173.731 4.72 174.141 4.83333 174.447 5.06C174.761 5.28 174.994 5.57 175.147 5.93L174.477 6.27C174.384 6.00333 174.231 5.79667 174.017 5.65C173.804 5.50333 173.537 5.43 173.217 5.43C172.977 5.43 172.767 5.47 172.587 5.55C172.407 5.62333 172.257 5.73 172.137 5.87C172.017 6.00333 171.927 6.16667 171.867 6.36C171.807 6.54667 171.777 6.75333 171.777 6.98V7.86C171.777 8.31333 171.897 8.68667 172.137 8.98C172.384 9.26667 172.744 9.41 173.217 9.41C173.864 9.41 174.331 9.11 174.617 8.51L175.197 8.9C175.031 9.27333 174.781 9.57 174.447 9.79C174.121 10.01 173.711 10.12 173.217 10.12ZM180.077 10C179.777 10 179.56 9.92 179.427 9.76C179.3 9.6 179.22 9.4 179.187 9.16H179.137C179.023 9.48 178.837 9.72 178.577 9.88C178.317 10.04 178.007 10.12 177.647 10.12C177.1 10.12 176.673 9.98 176.367 9.7C176.067 9.42 175.917 9.04 175.917 8.56C175.917 8.07333 176.093 7.7 176.447 7.44C176.807 7.18 177.363 7.05 178.117 7.05H179.137V6.54C179.137 6.17333 179.037 5.89333 178.837 5.7C178.637 5.50667 178.33 5.41 177.917 5.41C177.603 5.41 177.34 5.48 177.127 5.62C176.92 5.76 176.747 5.94667 176.607 6.18L176.127 5.73C176.267 5.45 176.49 5.21333 176.797 5.02C177.103 4.82 177.49 4.72 177.957 4.72C178.583 4.72 179.07 4.87333 179.417 5.18C179.763 5.48667 179.937 5.91333 179.937 6.46V9.3H180.527V10H180.077ZM177.777 9.44C177.977 9.44 178.16 9.41667 178.327 9.37C178.493 9.32333 178.637 9.25667 178.757 9.17C178.877 9.08333 178.97 8.98333 179.037 8.87C179.103 8.75667 179.137 8.63333 179.137 8.5V7.65H178.077C177.617 7.65 177.28 7.71667 177.067 7.85C176.86 7.98333 176.757 8.17667 176.757 8.43V8.64C176.757 8.89333 176.847 9.09 177.027 9.23C177.213 9.37 177.463 9.44 177.777 9.44ZM181.668 4.84H182.468V5.68H182.508C182.642 5.35333 182.835 5.11333 183.088 4.96C183.348 4.8 183.658 4.72 184.018 4.72C184.338 4.72 184.628 4.78333 184.888 4.91C185.148 5.03667 185.368 5.21667 185.548 5.45C185.735 5.68333 185.875 5.96667 185.968 6.3C186.068 6.63333 186.118 7.00667 186.118 7.42C186.118 7.83333 186.068 8.20667 185.968 8.54C185.875 8.87333 185.735 9.15667 185.548 9.39C185.368 9.62333 185.148 9.80333 184.888 9.93C184.628 10.0567 184.338 10.12 184.018 10.12C183.318 10.12 182.815 9.8 182.508 9.16H182.468V12H181.668V4.84ZM183.798 9.4C184.252 9.4 184.608 9.26 184.868 8.98C185.128 8.69333 185.258 8.32 185.258 7.86V6.98C185.258 6.52 185.128 6.15 184.868 5.87C184.608 5.58333 184.252 5.44 183.798 5.44C183.618 5.44 183.445 5.46667 183.278 5.52C183.118 5.56667 182.978 5.63333 182.858 5.72C182.738 5.80667 182.642 5.91333 182.568 6.04C182.502 6.16 182.468 6.29 182.468 6.43V8.35C182.468 8.51667 182.502 8.66667 182.568 8.8C182.642 8.92667 182.738 9.03667 182.858 9.13C182.978 9.21667 183.118 9.28333 183.278 9.33C183.445 9.37667 183.618 9.4 183.798 9.4ZM187.869 3.63C187.696 3.63 187.569 3.59 187.489 3.51C187.416 3.42333 187.379 3.31333 187.379 3.18V3.05C187.379 2.91667 187.416 2.81 187.489 2.73C187.569 2.64333 187.696 2.6 187.869 2.6C188.042 2.6 188.166 2.64333 188.239 2.73C188.319 2.81 188.359 2.91667 188.359 3.05V3.18C188.359 3.31333 188.319 3.42333 188.239 3.51C188.166 3.59 188.042 3.63 187.869 3.63ZM187.469 4.84H188.269V10H187.469V4.84ZM191.109 10C190.829 10 190.616 9.92333 190.469 9.77C190.329 9.61 190.259 9.40333 190.259 9.15V5.54H189.409V4.84H189.889C190.062 4.84 190.179 4.80667 190.239 4.74C190.306 4.66667 190.339 4.54333 190.339 4.37V3.41H191.059V4.84H192.189V5.54H191.059V9.3H192.109V10H191.109ZM197.225 10C196.925 10 196.708 9.92 196.575 9.76C196.448 9.6 196.368 9.4 196.335 9.16H196.285C196.172 9.48 195.985 9.72 195.725 9.88C195.465 10.04 195.155 10.12 194.795 10.12C194.248 10.12 193.822 9.98 193.515 9.7C193.215 9.42 193.065 9.04 193.065 8.56C193.065 8.07333 193.242 7.7 193.595 7.44C193.955 7.18 194.512 7.05 195.265 7.05H196.285V6.54C196.285 6.17333 196.185 5.89333 195.985 5.7C195.785 5.50667 195.478 5.41 195.065 5.41C194.752 5.41 194.488 5.48 194.275 5.62C194.068 5.76 193.895 5.94667 193.755 6.18L193.275 5.73C193.415 5.45 193.638 5.21333 193.945 5.02C194.252 4.82 194.638 4.72 195.105 4.72C195.732 4.72 196.218 4.87333 196.565 5.18C196.912 5.48667 197.085 5.91333 197.085 6.46V9.3H197.675V10H197.225ZM194.925 9.44C195.125 9.44 195.308 9.41667 195.475 9.37C195.642 9.32333 195.785 9.25667 195.905 9.17C196.025 9.08333 196.118 8.98333 196.185 8.87C196.252 8.75667 196.285 8.63333 196.285 8.5V7.65H195.225C194.765 7.65 194.428 7.71667 194.215 7.85C194.008 7.98333 193.905 8.17667 193.905 8.43V8.64C193.905 8.89333 193.995 9.09 194.175 9.23C194.362 9.37 194.612 9.44 194.925 9.44ZM157.838 23H153.258V22.14L155.538 20.04C155.864 19.74 156.138 19.4233 156.358 19.09C156.578 18.75 156.688 18.41 156.688 18.07V17.95C156.688 17.5633 156.581 17.25 156.368 17.01C156.154 16.77 155.831 16.65 155.398 16.65C155.184 16.65 154.998 16.68 154.838 16.74C154.678 16.8 154.538 16.8833 154.418 16.99C154.304 17.0967 154.208 17.2233 154.128 17.37C154.054 17.51 153.994 17.6633 153.948 17.83L153.198 17.54C153.264 17.3333 153.354 17.1333 153.468 16.94C153.588 16.74 153.734 16.5633 153.908 16.41C154.088 16.2567 154.301 16.1333 154.548 16.04C154.801 15.9467 155.098 15.9 155.438 15.9C155.778 15.9 156.081 15.95 156.348 16.05C156.614 16.15 156.838 16.29 157.018 16.47C157.198 16.65 157.334 16.8633 157.428 17.11C157.528 17.3567 157.578 17.63 157.578 17.93C157.578 18.2033 157.538 18.4567 157.458 18.69C157.384 18.9233 157.281 19.1467 157.148 19.36C157.014 19.5667 156.851 19.77 156.658 19.97C156.471 20.17 156.268 20.37 156.048 20.57L154.168 22.26H157.838V23ZM161.504 23.12C160.671 23.12 160.061 22.8033 159.674 22.17C159.294 21.5367 159.104 20.65 159.104 19.51C159.104 18.37 159.294 17.4833 159.674 16.85C160.061 16.2167 160.671 15.9 161.504 15.9C162.337 15.9 162.944 16.2167 163.324 16.85C163.711 17.4833 163.904 18.37 163.904 19.51C163.904 20.65 163.711 21.5367 163.324 22.17C162.944 22.8033 162.337 23.12 161.504 23.12ZM161.504 22.39C161.777 22.39 162.011 22.3333 162.204 22.22C162.397 22.1067 162.554 21.9467 162.674 21.74C162.794 21.5333 162.881 21.29 162.934 21.01C162.994 20.73 163.024 20.42 163.024 20.08V18.94C163.024 18.6 162.994 18.29 162.934 18.01C162.881 17.73 162.794 17.4867 162.674 17.28C162.554 17.0733 162.397 16.9133 162.204 16.8C162.011 16.6867 161.777 16.63 161.504 16.63C161.231 16.63 160.997 16.6867 160.804 16.8C160.611 16.9133 160.454 17.0733 160.334 17.28C160.214 17.4867 160.124 17.73 160.064 18.01C160.011 18.29 159.984 18.6 159.984 18.94V20.08C159.984 20.42 160.011 20.73 160.064 21.01C160.124 21.29 160.214 21.5333 160.334 21.74C160.454 21.9467 160.611 22.1067 160.804 22.22C160.997 22.3333 161.231 22.39 161.504 22.39ZM165.38 23V22.26H167.33V16.64H167.26L165.5 18.28L165.01 17.75L166.86 16.02H168.17V22.26H169.97V23H165.38ZM173.496 23.12C173.096 23.12 172.746 23.07 172.446 22.97C172.146 22.8633 171.893 22.72 171.686 22.54C171.486 22.36 171.333 22.1467 171.226 21.9C171.126 21.6533 171.076 21.3867 171.076 21.1C171.076 20.62 171.206 20.24 171.466 19.96C171.726 19.68 172.066 19.4833 172.486 19.37V19.29C172.119 19.1633 171.826 18.96 171.606 18.68C171.393 18.3933 171.286 18.05 171.286 17.65C171.286 17.1167 171.479 16.6933 171.866 16.38C172.253 16.06 172.796 15.9 173.496 15.9C174.196 15.9 174.739 16.06 175.126 16.38C175.513 16.6933 175.706 17.1167 175.706 17.65C175.706 18.05 175.596 18.3933 175.376 18.68C175.163 18.96 174.873 19.1633 174.506 19.29V19.37C174.926 19.4833 175.266 19.68 175.526 19.96C175.786 20.24 175.916 20.62 175.916 21.1C175.916 21.3867 175.863 21.6533 175.756 21.9C175.656 22.1467 175.503 22.36 175.296 22.54C175.096 22.72 174.846 22.8633 174.546 22.97C174.246 23.07 173.896 23.12 173.496 23.12ZM173.496 22.39C173.983 22.39 174.359 22.2833 174.626 22.07C174.893 21.85 175.026 21.54 175.026 21.14V20.93C175.026 20.53 174.893 20.2233 174.626 20.01C174.359 19.79 173.983 19.68 173.496 19.68C173.009 19.68 172.633 19.79 172.366 20.01C172.099 20.2233 171.966 20.53 171.966 20.93V21.14C171.966 21.54 172.099 21.85 172.366 22.07C172.633 22.2833 173.009 22.39 173.496 22.39ZM173.496 18.98C173.936 18.98 174.269 18.8867 174.496 18.7C174.723 18.5133 174.836 18.24 174.836 17.88V17.73C174.836 17.37 174.723 17.0967 174.496 16.91C174.269 16.7233 173.936 16.63 173.496 16.63C173.056 16.63 172.723 16.7233 172.496 16.91C172.269 17.0967 172.156 17.37 172.156 17.73V17.88C172.156 18.24 172.269 18.5133 172.496 18.7C172.723 18.8867 173.056 18.98 173.496 18.98Z" fill="#989898"/>
<path d="M169.757 93.12C168.871 93.12 168.181 92.82 167.687 92.22C167.194 91.6133 166.947 90.7233 166.947 89.55C166.947 88.3767 167.194 87.4767 167.687 86.85C168.181 86.2167 168.871 85.9 169.757 85.9C170.344 85.9 170.834 86.0333 171.227 86.3C171.627 86.5667 171.937 86.9433 172.157 87.43L171.477 87.84C171.337 87.48 171.124 87.1933 170.837 86.98C170.551 86.76 170.191 86.65 169.757 86.65C169.457 86.65 169.187 86.7067 168.947 86.82C168.714 86.9333 168.514 87.0967 168.347 87.31C168.187 87.5167 168.064 87.7667 167.977 88.06C167.891 88.3467 167.847 88.67 167.847 89.03V90.07C167.847 90.79 168.014 91.3533 168.347 91.76C168.681 92.1667 169.151 92.37 169.757 92.37C170.204 92.37 170.577 92.2567 170.877 92.03C171.177 91.7967 171.397 91.49 171.537 91.11L172.207 91.53C171.987 92.0233 171.671 92.4133 171.257 92.7C170.844 92.98 170.344 93.12 169.757 93.12ZM173.428 85.6H174.228V88.68H174.268C174.395 88.3867 174.571 88.1533 174.798 87.98C175.031 87.8067 175.341 87.72 175.728 87.72C176.261 87.72 176.681 87.8933 176.988 88.24C177.301 88.58 177.458 89.0633 177.458 89.69V93H176.658V89.83C176.658 88.9033 176.268 88.44 175.488 88.44C175.328 88.44 175.171 88.46 175.018 88.5C174.871 88.54 174.738 88.6 174.618 88.68C174.498 88.76 174.401 88.8633 174.328 88.99C174.261 89.11 174.228 89.2533 174.228 89.42V93H173.428V85.6ZM182.862 93C182.562 93 182.345 92.92 182.212 92.76C182.085 92.6 182.005 92.4 181.972 92.16H181.922C181.808 92.48 181.622 92.72 181.362 92.88C181.102 93.04 180.792 93.12 180.432 93.12C179.885 93.12 179.458 92.98 179.152 92.7C178.852 92.42 178.702 92.04 178.702 91.56C178.702 91.0733 178.878 90.7 179.232 90.44C179.592 90.18 180.148 90.05 180.902 90.05H181.922V89.54C181.922 89.1733 181.822 88.8933 181.622 88.7C181.422 88.5067 181.115 88.41 180.702 88.41C180.388 88.41 180.125 88.48 179.912 88.62C179.705 88.76 179.532 88.9467 179.392 89.18L178.912 88.73C179.052 88.45 179.275 88.2133 179.582 88.02C179.888 87.82 180.275 87.72 180.742 87.72C181.368 87.72 181.855 87.8733 182.202 88.18C182.548 88.4867 182.722 88.9133 182.722 89.46V92.3H183.312V93H182.862ZM180.562 92.44C180.762 92.44 180.945 92.4167 181.112 92.37C181.278 92.3233 181.422 92.2567 181.542 92.17C181.662 92.0833 181.755 91.9833 181.822 91.87C181.888 91.7567 181.922 91.6333 181.922 91.5V90.65H180.862C180.402 90.65 180.065 90.7167 179.852 90.85C179.645 90.9833 179.542 91.1767 179.542 91.43V91.64C179.542 91.8933 179.632 92.09 179.812 92.23C179.998 92.37 180.248 92.44 180.562 92.44ZM184.454 93V87.84H185.254V88.68H185.294C185.42 88.3867 185.597 88.1533 185.824 87.98C186.057 87.8067 186.367 87.72 186.754 87.72C187.287 87.72 187.707 87.8933 188.014 88.24C188.327 88.58 188.484 89.0633 188.484 89.69V93H187.684V89.83C187.684 88.9033 187.294 88.44 186.514 88.44C186.354 88.44 186.197 88.46 186.044 88.5C185.897 88.54 185.764 88.6 185.644 88.68C185.524 88.76 185.427 88.8633 185.354 88.99C185.287 89.11 185.254 89.2533 185.254 89.42V93H184.454ZM194.487 93.57C194.487 94.1033 194.277 94.4933 193.857 94.74C193.444 94.9933 192.82 95.12 191.987 95.12C191.18 95.12 190.6 95.01 190.247 94.79C189.894 94.57 189.717 94.2567 189.717 93.85C189.717 93.57 189.79 93.35 189.937 93.19C190.084 93.0367 190.284 92.9233 190.537 92.85V92.74C190.23 92.5933 190.077 92.3533 190.077 92.02C190.077 91.76 190.16 91.5633 190.327 91.43C190.494 91.29 190.707 91.1867 190.967 91.12V91.08C190.66 90.9333 190.42 90.7233 190.247 90.45C190.08 90.1767 189.997 89.86 189.997 89.5C189.997 89.24 190.044 89 190.137 88.78C190.23 88.56 190.36 88.3733 190.527 88.22C190.7 88.06 190.904 87.9367 191.137 87.85C191.377 87.7633 191.644 87.72 191.937 87.72C192.304 87.72 192.63 87.7867 192.917 87.92V87.83C192.917 87.63 192.964 87.4667 193.057 87.34C193.15 87.2067 193.304 87.14 193.517 87.14H194.287V87.84H193.307V88.17C193.494 88.33 193.637 88.5233 193.737 88.75C193.844 88.97 193.897 89.22 193.897 89.5C193.897 89.76 193.85 90 193.757 90.22C193.664 90.44 193.53 90.63 193.357 90.79C193.19 90.9433 192.987 91.0633 192.747 91.15C192.507 91.2367 192.24 91.28 191.947 91.28C191.78 91.28 191.614 91.2633 191.447 91.23C191.274 91.2767 191.117 91.3467 190.977 91.44C190.837 91.5267 190.767 91.65 190.767 91.81C190.767 91.9633 190.84 92.0667 190.987 92.12C191.134 92.1733 191.324 92.2 191.557 92.2H192.657C193.297 92.2 193.76 92.3233 194.047 92.57C194.34 92.81 194.487 93.1433 194.487 93.57ZM193.737 93.63C193.737 93.4233 193.657 93.2567 193.497 93.13C193.344 93.01 193.067 92.95 192.667 92.95H190.947C190.627 93.0967 190.467 93.33 190.467 93.65C190.467 93.8767 190.55 94.07 190.717 94.23C190.89 94.39 191.18 94.47 191.587 94.47H192.327C192.774 94.47 193.12 94.4 193.367 94.26C193.614 94.12 193.737 93.91 193.737 93.63ZM191.947 90.64C192.287 90.64 192.557 90.56 192.757 90.4C192.957 90.2333 193.057 89.98 193.057 89.64V89.36C193.057 89.02 192.957 88.77 192.757 88.61C192.557 88.4433 192.287 88.36 191.947 88.36C191.607 88.36 191.337 88.4433 191.137 88.61C190.937 88.77 190.837 89.02 190.837 89.36V89.64C190.837 89.98 190.937 90.2333 191.137 90.4C191.337 90.56 191.607 90.64 191.947 90.64ZM197.302 93.12C196.948 93.12 196.628 93.0567 196.342 92.93C196.062 92.8033 195.818 92.6233 195.612 92.39C195.412 92.15 195.255 91.8667 195.142 91.54C195.035 91.2067 194.982 90.8333 194.982 90.42C194.982 90.0133 195.035 89.6433 195.142 89.31C195.255 88.9767 195.412 88.6933 195.612 88.46C195.818 88.22 196.062 88.0367 196.342 87.91C196.628 87.7833 196.948 87.72 197.302 87.72C197.648 87.72 197.958 87.7833 198.232 87.91C198.505 88.0367 198.738 88.2133 198.932 88.44C199.125 88.66 199.272 88.9233 199.372 89.23C199.478 89.5367 199.532 89.8733 199.532 90.24V90.62H195.822V90.86C195.822 91.08 195.855 91.2867 195.922 91.48C195.995 91.6667 196.095 91.83 196.222 91.97C196.355 92.11 196.515 92.22 196.702 92.3C196.895 92.38 197.112 92.42 197.352 92.42C197.678 92.42 197.962 92.3433 198.202 92.19C198.448 92.0367 198.638 91.8167 198.772 91.53L199.342 91.94C199.175 92.2933 198.915 92.58 198.562 92.8C198.208 93.0133 197.788 93.12 197.302 93.12ZM197.302 88.39C197.082 88.39 196.882 88.43 196.702 88.51C196.522 88.5833 196.365 88.69 196.232 88.83C196.105 88.97 196.005 89.1367 195.932 89.33C195.858 89.5167 195.822 89.7233 195.822 89.95V90.02H198.672V89.91C198.672 89.45 198.545 89.0833 198.292 88.81C198.045 88.53 197.715 88.39 197.302 88.39Z" fill="#989898"/>
<path d="M6.43031 58L5.59031 55.528H2.20631L1.36631 58H0.346313L3.27431 49.624H4.55831L7.48631 58H6.43031ZM3.92231 50.56H3.86231L2.44631 54.64H5.33831L3.92231 50.56ZM12.5938 56.992H12.5458C12.4818 57.136 12.4018 57.28 12.3058 57.424C12.2178 57.56 12.1058 57.684 11.9698 57.796C11.8338 57.9 11.6698 57.984 11.4778 58.048C11.2858 58.112 11.0618 58.144 10.8058 58.144C10.1658 58.144 9.65781 57.94 9.28181 57.532C8.90581 57.116 8.71781 56.532 8.71781 55.78V51.808H9.67781V55.612C9.67781 56.724 10.1498 57.28 11.0938 57.28C11.2858 57.28 11.4698 57.256 11.6458 57.208C11.8298 57.16 11.9898 57.088 12.1258 56.992C12.2698 56.896 12.3818 56.776 12.4618 56.632C12.5498 56.48 12.5938 56.3 12.5938 56.092V51.808H13.5538V58H12.5938V56.992ZM17.4581 58.144C16.8821 58.144 16.3981 58.036 16.0061 57.82C15.6221 57.596 15.2901 57.3 15.0101 56.932L15.6941 56.38C15.9341 56.684 16.2021 56.92 16.4981 57.088C16.7941 57.248 17.1381 57.328 17.5301 57.328C17.9381 57.328 18.2541 57.24 18.4781 57.064C18.7101 56.888 18.8261 56.64 18.8261 56.32C18.8261 56.08 18.7461 55.876 18.5861 55.708C18.4341 55.532 18.1541 55.412 17.7461 55.348L17.2541 55.276C16.9661 55.236 16.7021 55.176 16.4621 55.096C16.2221 55.008 16.0101 54.896 15.8261 54.76C15.6501 54.616 15.5101 54.44 15.4061 54.232C15.3101 54.024 15.2621 53.776 15.2621 53.488C15.2621 53.184 15.3181 52.92 15.4301 52.696C15.5421 52.464 15.6941 52.272 15.8861 52.12C16.0861 51.968 16.3221 51.856 16.5941 51.784C16.8661 51.704 17.1581 51.664 17.4701 51.664C17.9741 51.664 18.3941 51.752 18.7301 51.928C19.0741 52.104 19.3741 52.348 19.6301 52.66L18.9941 53.236C18.8581 53.044 18.6581 52.872 18.3941 52.72C18.1301 52.56 17.7981 52.48 17.3981 52.48C16.9981 52.48 16.6941 52.568 16.4861 52.744C16.2861 52.912 16.1861 53.144 16.1861 53.44C16.1861 53.744 16.2861 53.964 16.4861 54.1C16.6941 54.236 16.9901 54.336 17.3741 54.4L17.8541 54.472C18.5421 54.576 19.0301 54.776 19.3181 55.072C19.6061 55.36 19.7501 55.74 19.7501 56.212C19.7501 56.812 19.5461 57.284 19.1381 57.628C18.7301 57.972 18.1701 58.144 17.4581 58.144ZM22.7318 58C22.3958 58 22.1398 57.908 21.9638 57.724C21.7958 57.532 21.7118 57.284 21.7118 56.98V52.648H20.6918V51.808H21.2678C21.4758 51.808 21.6158 51.768 21.6878 51.688C21.7678 51.6 21.8078 51.452 21.8078 51.244V50.092H22.6718V51.808H24.0278V52.648H22.6718V57.16H23.9318V58H22.7318ZM25.5708 58V51.808H26.5308V52.948H26.5908C26.7028 52.652 26.9028 52.388 27.1908 52.156C27.4788 51.924 27.8748 51.808 28.3788 51.808H28.7508V52.768H28.1868C27.6668 52.768 27.2588 52.868 26.9628 53.068C26.6748 53.26 26.5308 53.504 26.5308 53.8V58H25.5708ZM34.4302 58C34.0702 58 33.8102 57.904 33.6502 57.712C33.4982 57.52 33.4022 57.28 33.3622 56.992H33.3022C33.1662 57.376 32.9422 57.664 32.6302 57.856C32.3182 58.048 31.9462 58.144 31.5142 58.144C30.8582 58.144 30.3462 57.976 29.9782 57.64C29.6182 57.304 29.4382 56.848 29.4382 56.272C29.4382 55.688 29.6502 55.24 30.0742 54.928C30.5062 54.616 31.1742 54.46 32.0782 54.46H33.3022V53.848C33.3022 53.408 33.1822 53.072 32.9422 52.84C32.7022 52.608 32.3342 52.492 31.8382 52.492C31.4622 52.492 31.1462 52.576 30.8902 52.744C30.6422 52.912 30.4342 53.136 30.2662 53.416L29.6902 52.876C29.8582 52.54 30.1262 52.256 30.4942 52.024C30.8622 51.784 31.3262 51.664 31.8862 51.664C32.6382 51.664 33.2222 51.848 33.6382 52.216C34.0542 52.584 34.2622 53.096 34.2622 53.752V57.16H34.9702V58H34.4302ZM31.6702 57.328C31.9102 57.328 32.1302 57.3 32.3302 57.244C32.5302 57.188 32.7022 57.108 32.8462 57.004C32.9902 56.9 33.1022 56.78 33.1822 56.644C33.2622 56.508 33.3022 56.36 33.3022 56.2V55.18H32.0302C31.4782 55.18 31.0742 55.26 30.8182 55.42C30.5702 55.58 30.4462 55.812 30.4462 56.116V56.368C30.4462 56.672 30.5542 56.908 30.7702 57.076C30.9942 57.244 31.2942 57.328 31.6702 57.328ZM37.3603 58C37.0243 58 36.7683 57.908 36.5923 57.724C36.4243 57.532 36.3403 57.292 36.3403 57.004V49.12H37.3003V57.16H38.2123V58H37.3603ZM40.0898 50.356C39.8818 50.356 39.7298 50.308 39.6338 50.212C39.5458 50.108 39.5018 49.976 39.5018 49.816V49.66C39.5018 49.5 39.5458 49.372 39.6338 49.276C39.7298 49.172 39.8818 49.12 40.0898 49.12C40.2978 49.12 40.4458 49.172 40.5338 49.276C40.6298 49.372 40.6778 49.5 40.6778 49.66V49.816C40.6778 49.976 40.6298 50.108 40.5338 50.212C40.4458 50.308 40.2978 50.356 40.0898 50.356ZM39.6098 51.808H40.5698V58H39.6098V51.808ZM47.1098 58C46.7498 58 46.4898 57.904 46.3298 57.712C46.1778 57.52 46.0818 57.28 46.0418 56.992H45.9818C45.8458 57.376 45.6218 57.664 45.3098 57.856C44.9978 58.048 44.6258 58.144 44.1938 58.144C43.5378 58.144 43.0258 57.976 42.6578 57.64C42.2978 57.304 42.1178 56.848 42.1178 56.272C42.1178 55.688 42.3298 55.24 42.7538 54.928C43.1858 54.616 43.8538 54.46 44.7578 54.46H45.9818V53.848C45.9818 53.408 45.8618 53.072 45.6218 52.84C45.3818 52.608 45.0138 52.492 44.5178 52.492C44.1418 52.492 43.8258 52.576 43.5698 52.744C43.3218 52.912 43.1138 53.136 42.9458 53.416L42.3698 52.876C42.5378 52.54 42.8058 52.256 43.1738 52.024C43.5418 51.784 44.0058 51.664 44.5658 51.664C45.3178 51.664 45.9018 51.848 46.3178 52.216C46.7338 52.584 46.9418 53.096 46.9418 53.752V57.16H47.6498V58H47.1098ZM44.3498 57.328C44.5898 57.328 44.8098 57.3 45.0098 57.244C45.2098 57.188 45.3818 57.108 45.5258 57.004C45.6698 56.9 45.7818 56.78 45.8618 56.644C45.9418 56.508 45.9818 56.36 45.9818 56.2V55.18H44.7098C44.1578 55.18 43.7538 55.26 43.4978 55.42C43.2498 55.58 43.1258 55.812 43.1258 56.116V56.368C43.1258 56.672 43.2338 56.908 43.4498 57.076C43.6738 57.244 43.9738 57.328 44.3498 57.328Z" fill="#FAFAFA"/>
</svg>
